<svg version="1" xmlns="http://www.w3.org/2000/svg" width="666.667" height="666.667" viewBox="0 0 500.000000 500.000000"><path d="M0 250v250h500V0H0v250zm339-114.5v5.5h10v21h11v109h11v57h-32.5v21.5l-5.2.3-5.2.3-.3 5.2-.3 5.2-5.2.3-5.3.3v8.9H162v-9h-10v-11h-11v-22h-11V162h11v-20.9l5.3-.3 5.2-.3.3-5.3.3-5.2H339v5.5z"/><path d="M160 146v5h-10v20h-10v100h10v30h10v-30h40v-10h-40v-60h30v-10h80v10h40v20h10v10h-10v10h10v60h10v-20h10v-10h10V171h-10v-20h-10v-10H160v5z"/><path d="M260 266v5h40v-10h-40v5zM170 286v5h10v-10h-10v5zM270 286v5h10v-10h-10v5zM150 326v15h10v10h10v9h140v-9h10v-10h10v-30h-10v30h-20v10h-30v-40h-40v10h30v10h-40v10h40v10h-50v-30h10v-10h-20v40h-30v-10h-10v-30h-10v15z"/></svg>